<svg width="280" height="45" viewBox="0 0 280 45" fill="none" xmlns="http://www.w3.org/2000/svg">
<path d="M12.9399 45C7.49557 45 3.18226 42.9651 0 38.8953L4.31331 33.7209C5.42518 35.0775 6.74793 36.1628 8.28155 36.9767C9.85351 37.7519 11.4255 38.1395 12.9974 38.1395C14.2243 38.1395 15.2403 37.8488 16.0455 37.2674C16.889 36.686 17.3107 35.9496 17.3107 35.0581C17.3107 33.9341 16.5631 33.0233 15.0678 32.3256C14.6077 32.1318 13.3617 31.6473 11.3296 30.8721C9.52761 30.2132 8.1857 29.6512 7.30386 29.186C3.69986 27.4419 1.89785 24.7093 1.89785 20.9884C1.89785 18.2364 2.97139 15.9496 5.11846 14.1279C7.22718 12.345 10.0644 11.4535 13.63 11.4535C18.0775 11.4535 21.7391 12.9651 24.6146 15.9884L20.5888 21.2791C18.4034 19.186 16.0072 18.1395 13.4 18.1395C12.3648 18.1395 11.5021 18.4109 10.812 18.9535C10.1602 19.4574 9.83434 20.0775 9.83434 20.814C9.83434 22.1318 10.7545 23.1008 12.5949 23.7209C16.6973 25.2713 19.2086 26.2984 20.1288 26.8023C23.6561 28.6628 25.4197 31.3372 25.4197 34.8256C25.4197 37.8101 24.2695 40.2519 21.9691 42.1512C19.7454 44.0504 16.7356 45 12.9399 45Z" fill="#ACCA26"/>
<path d="M68.9033 11.6279C72.6606 11.6279 75.7087 12.8101 78.0475 15.1744C80.4629 17.5388 81.6706 20.8333 81.6706 25.0581V44.186H73.5616V26.5698C73.5616 24.2054 72.9865 22.3837 71.8363 21.1046C70.7244 19.8256 69.21 19.186 67.293 19.186C65.2226 19.186 63.5548 19.8837 62.2895 21.2791C61.0243 22.6357 60.3917 24.4767 60.3917 26.8023V44.186H52.2827V26.6279C52.2827 24.3023 51.7075 22.4806 50.5573 21.1628C49.4455 19.845 47.9118 19.186 45.9565 19.186C43.9628 19.186 42.3141 19.8837 41.0105 21.2791C39.7453 22.6744 39.1127 24.5349 39.1127 26.8605V44.186H31.0037V12.5H38.9402V17.0349C39.822 15.3682 41.1256 14.0504 42.8509 13.0814C44.5762 12.0736 46.4549 11.5891 48.4869 11.6279C50.4806 11.6279 52.3018 12.1124 53.9505 13.0814C55.6374 14.0504 56.8835 15.4264 57.6887 17.2093C58.8389 15.4651 60.4108 14.1085 62.4045 13.1395C64.3982 12.1318 66.5645 11.6279 68.9033 11.6279Z" fill="#ACCA26"/>
<path d="M112.494 16.2791V12.5H120.2V44.186H112.494V40.5233C109.81 43.469 106.474 44.9419 102.487 44.9419C97.9627 44.9419 94.2436 43.3527 91.3297 40.1744C88.4159 36.9961 86.9589 33.0039 86.9589 28.1977C86.9589 23.4302 88.435 19.4961 91.3873 16.3953C94.3395 13.2558 98.0393 11.686 102.487 11.686C106.398 11.686 109.733 13.2171 112.494 16.2791ZM112.609 28.314C112.609 25.8333 111.765 23.6822 110.078 21.8605C108.43 20.0775 106.34 19.186 103.81 19.186C101.241 19.186 99.132 20.0775 97.4834 21.8605C95.8731 23.6434 95.0679 25.7946 95.0679 28.314C95.0679 30.8721 95.8923 33.0426 97.5409 34.8256C99.1895 36.6085 101.279 37.5 103.81 37.5C106.34 37.5 108.43 36.6085 110.078 34.8256C111.765 33.0039 112.609 30.8333 112.609 28.314Z" fill="#ACCA26"/>
<path d="M135.6 44.186H127.491V12.5H135.255V16.7442C137.134 13.3333 140.01 11.6279 143.882 11.6279C145.147 11.6279 146.412 11.8605 147.678 12.3256L146.988 20.1744C145.607 19.7481 144.361 19.5349 143.249 19.5349C140.872 19.5349 138.994 20.3488 137.613 21.9767C136.271 23.5659 135.6 25.9496 135.6 29.1279V44.186Z" fill="#ACCA26"/>
<path d="M172.671 35.8721L175.087 42.3256C172.48 44.0698 169.393 44.9419 165.828 44.9419C162.224 44.9419 159.502 43.8953 157.661 41.8023C155.821 39.6705 154.901 36.5504 154.901 32.4419V19.3605H149.782V12.5H154.958V1.27907H163.01V12.5H173.362V19.3605H163.01V31.9186C163.01 35.6395 164.486 37.5 167.438 37.5C169.048 37.5 170.793 36.9574 172.671 35.8721Z" fill="#ACCA26"/>
<path d="M201.894 16.1628V0H210.003V44.186H202.067V40.2907C199.536 43.3915 196.296 44.9419 192.347 44.9419C187.862 44.9419 184.162 43.3721 181.248 40.2326C178.296 37.0155 176.819 33.0426 176.819 28.314C176.819 23.624 178.296 19.6705 181.248 16.4535C184.238 13.2752 187.938 11.686 192.347 11.686C196.105 11.686 199.287 13.1783 201.894 16.1628ZM202.297 28.314C202.297 25.7558 201.492 23.6046 199.881 21.8605C198.271 20.0775 196.181 19.186 193.613 19.186C191.044 19.186 188.935 20.0775 187.286 21.8605C185.676 23.6046 184.871 25.7558 184.871 28.314C184.871 30.9109 185.676 33.1008 187.286 34.8837C188.935 36.6279 191.044 37.5 193.613 37.5C196.181 37.5 198.271 36.6279 199.881 34.8837C201.492 33.1008 202.297 30.9109 202.297 28.314Z" fill="#ACCA26"/>
<path d="M247.775 27.6163C247.775 28.5853 247.679 29.7868 247.488 31.2209H223.966C225.116 35.7171 228.164 37.9651 233.11 37.9651C236.752 37.9651 240.126 36.8992 243.232 34.7674L246.452 40.5233C242.465 43.4302 237.902 44.8837 232.765 44.8837C227.282 44.8837 223.065 43.2752 220.112 40.0581C217.199 36.8798 215.742 32.9651 215.742 28.314C215.742 23.469 217.256 19.4961 220.285 16.3953C223.314 13.2558 227.244 11.686 232.075 11.686C236.637 11.686 240.395 13.1202 243.347 15.9884C246.299 18.8566 247.775 22.7326 247.775 27.6163ZM232.075 18.4884C230.043 18.4884 228.298 19.0891 226.841 20.2907C225.423 21.4535 224.464 23.062 223.966 25.1163H239.896C239.513 23.062 238.631 21.4535 237.251 20.2907C235.87 19.0891 234.145 18.4884 232.075 18.4884Z" fill="#ACCA26"/>
<path d="M269.936 28.2558L280 44.186H270.683L264.702 33.7791L258.433 44.186H249.059L259.469 28.0233L250.209 12.5H259.469L264.817 22.2093L270.568 12.5H279.712L269.936 28.2558Z" fill="#ACCA26"/>
</svg>
